<?xml version="1.0" standalone="no"?>
<!DOCTYPE svg PUBLIC "-//W3C//DTD SVG 20010904//EN"
 "http://www.w3.org/TR/2001/REC-SVG-20010904/DTD/svg10.dtd">
<svg version="1.0" xmlns="http://www.w3.org/2000/svg"
 width="600.000000pt" height="250.000000pt" viewBox="0 0 600.000000 250.000000"
 preserveAspectRatio="xMidYMid meet">
<metadata>
Created by potrace 1.13, written by Peter Selinger 2001-2015
</metadata>
<g transform="translate(0.000000,250.000000) scale(0.100000,-0.100000)"
fill="#000000" stroke="none">
<path d="M0 1250 l0 -1250 3000 0 3000 0 0 1250 0 1250 -3000 0 -3000 0 0
-1250z m2780 506 l104 -194 105 194 c89 164 109 194 128 194 15 0 24 -7 28
-22 15 -64 102 -604 98 -610 -2 -5 -35 -8 -73 -8 -80 0 -71 -15 -96 158 l-17
123 -76 -146 c-99 -190 -97 -190 -194 -1 -79 155 -77 155 -96 6 -19 -153 -11
-140 -91 -140 -38 0 -71 4 -74 8 -4 7 88 583 99 620 3 6 15 12 27 12 20 0 39
-30 128 -194z m695 -131 l0 -310 -69 -3 c-49 -2 -72 1 -77 10 -10 15 -12 578
-3 603 5 13 19 15 78 13 l71 -3 0 -310z m-795 -519 l5 -120 98 123 98 122 72
-3 c54 -2 72 -7 75 -18 1 -8 -46 -75 -104 -148 l-106 -133 88 -115 c154 -200
149 -191 134 -209 -9 -11 -32 -15 -81 -15 l-69 0 -105 141 -105 141 0 -135 c0
-114 -2 -136 -16 -141 -28 -11 -120 -6 -132 6 -17 17 -17 599 0 616 8 8 36 12
78 10 l65 -3 5 -119z m795 54 l0 -65 -107 -3 -108 -3 0 -49 0 -49 83 -3 82 -3
3 -67 3 -68 -86 0 -85 0 0 -60 0 -59 108 -3 107 -3 3 -56 c2 -39 -1 -59 -11
-68 -10 -8 -64 -11 -183 -9 l-169 3 -3 305 c-1 168 0 311 3 318 3 10 45 12
182 10 l178 -3 0 -65z"/>
</g>
</svg>
